<svg width="12" height="12" viewBox="0 0 12 12" fill="none" xmlns="http://www.w3.org/2000/svg">
<path fill-rule="evenodd" clip-rule="evenodd" d="M1.06782 0.183058C0.823746 -0.0610194 0.427136 -0.0610194 0.183058 0.183058C-0.0610194 0.427136 -0.0610194 0.823746 0.183058 1.06782L4.74067 5.62544L0.183058 10.1831C-0.0610191 10.4271 -0.0610193 10.8237 0.183058 11.0678C0.427136 11.3119 0.823746 11.3119 1.06782 11.0678L5.62544 6.51021L10.1831 11.0678C10.4271 11.3119 10.8237 11.3119 11.0678 11.0678C11.3119 10.8237 11.3119 10.4271 11.0678 10.1831L6.51021 5.62544L11.0678 1.06782C11.3119 0.823746 11.3119 0.427136 11.0678 0.183058C10.8237 -0.0610193 10.4271 -0.0610191 10.1831 0.183058L5.62544 4.74067L1.06782 0.183058Z" fill="#343839"/>
</svg>
